<?xml version="1.0" standalone="no"?><!DOCTYPE svg PUBLIC "-//W3C//DTD SVG 1.1//EN" "http://www.w3.org/Graphics/SVG/1.1/DTD/svg11.dtd"><svg t="1505208973700" class="icon" style="" viewBox="0 0 1024 1024" version="1.1" xmlns="http://www.w3.org/2000/svg" p-id="698" xmlns:xlink="http://www.w3.org/1999/xlink" width="400" height="400"><defs><style type="text/css"></style></defs><path d="M512 62C263.465 62 62 263.465 62 512s201.465 450 450 450 450-201.465 450-450S760.535 62 512 62z m208.53 390.105c-0.9 3.915-3.24 9.72-6.48 16.65h0.09l-0.36 0.675c-18.9 40.41-68.22 119.7-68.22 119.7l-0.225-0.54-14.4 25.11h69.435l-132.66 176.355 30.15-119.97h-54.675l18.99-79.335c-15.345 3.69-33.525 8.775-55.035 15.705 0 0-29.07 17.01-83.79-32.76 0 0-36.9-32.535-15.48-40.635 9.09-3.465 44.145-7.875 71.73-11.565 37.35-5.04 60.255-7.74 60.255-7.74s-114.975 1.71-142.245-2.565c-27.27-4.275-61.875-49.815-69.255-89.82 0 0-11.385-21.96 24.525-11.565 35.91 10.395 184.545 40.5 184.545 40.5S344.15 391.04 331.235 376.55c-12.87-14.4-37.845-78.93-34.605-118.53 0 0 1.395-9.9 11.565-7.2 0 0 142.92 65.25 240.615 101.025 97.74 35.775 182.7 53.955 171.72 100.26z" fill="#3AA2EB" p-id="699"></path></svg>