<?xml version="1.0" standalone="no"?><!DOCTYPE svg PUBLIC "-//W3C//DTD SVG 1.1//EN" "http://www.w3.org/Graphics/SVG/1.1/DTD/svg11.dtd"><svg t="1505209060399" class="icon" style="" viewBox="0 0 1024 1024" version="1.1" xmlns="http://www.w3.org/2000/svg" p-id="727" xmlns:xlink="http://www.w3.org/1999/xlink" width="400" height="400"><defs><style type="text/css"></style></defs><path d="M554.1875 807.3125V216.6875h358.59375v590.625H554.1875z m126.5625-527.34375h-105.46875v84.375h105.46875v-84.375z m0 126.5625h-105.46875v84.375h105.46875v-84.375z m0 126.5625h-105.46875v84.375h105.46875v-84.375z m0 126.5625h-105.46875v84.375h105.46875v-84.375z m147.65625-379.6875h-105.46875v84.375h105.46875v-84.375z m0 126.5625h-105.46875v84.375h105.46875v-84.375z m0 126.5625h-105.46875v84.375h105.46875v-84.375z m0 126.5625h-105.46875v84.375h105.46875v-84.375zM90.125 216.6875l442.96875-126.5625v822.65625L90.125 786.21875V216.6875z m84.375 442.96875h63.28125l84.375-107.578125 84.375 107.578125h63.28125l-116.015625-147.65625 116.015625-147.65625h-63.28125l-84.375 107.578125L237.78125 364.34375H174.5l116.015625 147.65625L174.5 659.65625z" fill="#01723E" p-id="728"></path></svg>