<?xml version="1.0" standalone="no"?><!DOCTYPE svg PUBLIC "-//W3C//DTD SVG 1.1//EN" "http://www.w3.org/Graphics/SVG/1.1/DTD/svg11.dtd"><svg t="1505466340783" class="icon" style="" viewBox="0 0 1024 1024" version="1.1" xmlns="http://www.w3.org/2000/svg" p-id="781" xmlns:xlink="http://www.w3.org/1999/xlink" width="400" height="400"><defs><style type="text/css"></style></defs><path d="M511.99981982 62c248.52590068 0 449.99981982 201.47391914 449.99981982 449.99981982s-201.47391914 449.99981982-449.99981982 449.99981983S62 760.5257205 62 511.99981982 263.47391914 62 511.99981982 62z" fill="#91D8F0" p-id="782"></path><path d="M601.99978378 952.98164404a447.6688207 447.6688207 0 0 0 170.99993145-74.51997099V619.99977675H601.99978378v332.98186729z" fill="#F4F0D3" p-id="783"></path><path d="M655.99976269 781.99971172l-53.9999789-8.99999649v-80.99996747l53.99997891 8.99999648 116.99995253-26.99998945v80.99996836l-116.99995253 26.99998857z m-53.9999789 170.98193232c18.44999297-3.74399825 36.44098506-8.72999648 53.99997891-14.66099472V619.99977675h-53.99997891v332.98186729z" fill="#DBD8BD" p-id="784"></path><path d="M601.99978378 691.99974776v80.99996747l53.99997892 8.99999649v-80.99996748z" fill="#C5C2AA" p-id="785"></path><path d="M538.99980928 394.99986641v314.99987431l405.89083739-75.15897012A450.11681982 450.11681982 0 0 0 961.99963964 511.99981982a448.0918207 448.0918207 0 0 0-41.04898329-187.72192441L538.99980928 394.99986641z" fill="#E2574C" p-id="786"></path><path d="M940.57064844 374.6328752a449.69381982 449.69381982 0 0 0-98.24396045-168.1199332L364.05787959 299.37490508l-55.79097803 43.05598242L538.99980928 448.99984531l401.57083916-74.36697011z" fill="#E67067" p-id="787"></path><path d="M950.20064492 614.1857794L529.99981279 691.99974776v44.99998242l406.37683741-75.24897012a446.18382158 446.18382158 0 0 0 13.82399472-47.56498066z" fill="#CB4E44" p-id="788"></path><path d="M514.73581894 731.83373193L312.9198998 692.90874776c-32.12098682-6.19199737-61.91997539 18.53099297-61.91997538 51.3899789v134.16294639A447.7948207 447.7948207 0 0 0 511.99981982 961.99963964c15.19199385 0 30.1949877-0.774 44.99998242-2.24999911V783.22371172a52.27197891 52.27197891 0 0 0-42.26398329-51.38997979z" fill="#E2574C" p-id="789"></path><path d="M732.22973193 503.73782334c-0.702-4.07699825-5.27399825-8.06399648-11.4749956-6.95699737-5.84999737 1.035-10.4219956 6.04799737-11.71799472 10.47599561l-13.81499474 48.68098066-0.234 0.045-13.81499473-43.78498242c-1.29599912-3.96899824-5.85899737-7.36199737-11.71799472-6.32699736-6.20099737 1.10699912-10.7729956 6.69599737-11.4749956 11.03399561l-10.88999561 67.06797275-0.117 2.007c0 5.12999824 3.74399825 7.73999648 8.43299648 6.91199648 5.97599737-1.053 8.31599648-4.14899825 9.13499648-9.7919956l6.92099737-48.73498066 0.225-0.045 14.05799385 46.42198154c0.828 2.66399912 3.05099912 6.23699737 9.37799648 5.11199824 6.31799737-1.12499912 8.54099648-5.48099824 9.35999649-8.43299736l14.05799385-51.40797891 0.225-0.045 6.92099736 46.29598154c0.819 5.34599824 3.15899912 7.61399737 9.13499648 6.56099737 4.68899825-0.837 8.43299648-4.76099825 8.43299648-9.90899648l-0.117-1.96199913-10.9079956-63.21597451z m71.22597188-12.61799472c-1.99799912-5.24699824-6.32699737-8.57699648-12.53699561-7.47899737-5.97599737 1.062-10.5479956 6.19199737-12.53699472 11.9159956l-23.54399033 67.67997276c-0.225 0.621-0.819 2.13299912-0.819 3.99599824 0 4.67999825 3.97799825 7.46999737 8.66699648 6.64199736 4.80599824-0.864 7.26299737-3.86099825 8.44199649-7.68599648l3.50999911-11.4839956 32.56198682-5.76899824 3.51899824 10.34099647c1.16999912 3.30299824 3.62699825 5.43599825 8.54999648 4.56299825 4.32899824-0.765 8.07299648-4.58999825 8.07299737-9.14399648a12.23999473 12.23999473 0 0 0-0.936-4.15799825l-22.94999033-59.41797626z m-23.78699121 46.57498154l11.1239956-35.81998594 0.234-0.036 10.88999561 31.92298682-22.24799121 3.93299912z m70.78497187-63.89997451c-5.03999824 0.891-8.78399648 4.82399825-8.78399648 10.6649956v66.31197363c0 5.83199737 3.74399825 8.44199648 8.78399648 7.55099649s8.79299648-4.82399825 8.79299649-10.66499561v-66.31197363c0-5.84099737-3.75299824-8.44199648-8.79299649-7.55099648z m67.20297363 55.79997714l-20.84399208 3.68999913v-58.59897715c0-5.83199737-3.75299824-8.44199648-8.79299649-7.55099649s-8.78399648 4.83299825-8.78399648 10.6649956v65.13297364c0 5.84099737 3.39299825 8.97299648 9.13499648 7.96499649l29.28598857-5.18399737c5.14799825-0.918 8.31599648-5.32799824 8.43299649-9.19799648 0.234-4.02299824-2.45699912-7.97399648-8.43299649-6.92099737z" fill="#F2B5B0" p-id="790"></path><path d="M421.99985586 298.45690508c84.50096661 16.29899385 152.99993847 103.11295869 152.99993935 193.88692265v192.35692354c0 32.85898682-29.79898769 57.58197715-61.91997539 51.39897891l-201.81591914-38.93398419A52.26297891 52.26297891 0 0 1 268.99991739 645.78476621V433.32185146c0-90.78296396 68.49897276-151.16393935 152.99993847-134.86494638z" fill="#B5463D" p-id="791"></path><path d="M421.99985586 298.45690508a138.76194463 138.76194463 0 0 0-40.18498418-1.82699912c4.35599825 0.441 8.73899648 0.972 13.18499473 1.82699912 84.50096661 16.29899385 152.99993847 103.11295869 152.99993935 193.88692265v192.35692354a52.29897891 52.29897891 0 0 1-38.87098418 50.63397979l3.95099824 0.76499912c32.12098682 6.19199737 61.91997539-18.53999297 61.91997539-51.39897891V492.34382773c0-90.78296396-68.49897276-177.58792881-152.99993935-193.88692265zM269.69291651 653.67776357c3.27599912 21.59099122 19.67399209 39.26698418 41.57098417 43.48798242L513.07981982 736.09973018c32.12098682 6.19199737 61.91997539-18.53999297 61.91997539-51.39897891V590.52478818l-305.3068787 63.15297539z" fill="#A33F37" p-id="792"></path><path d="M574.99979521 590.52478818l-305.3068787 63.16197539a52.10997891 52.10997891 0 0 0 28.80898857 39.04198419L574.99979521 635.5247706v-44.99998242z" fill="#BA564E" p-id="793"></path><path d="M574.99979521 492.34382773c0-44.99098242-16.85699297-88.97396484-44.10898242-123.9209499l-117.96295342 22.40999033C397.29486552 393.81186729 385.9998708 407.32986201 385.9998708 423.05285586v227.29490859c0 20.59199209 18.98999209 36.08998594 39.46498418 32.20198769L574.99979521 654.13676357V492.34382773z" fill="#FFFFFF" p-id="794"></path><path d="M430.99985234 534.22081104c0 3.02399912 2.91599912 5.29199825 6.07499737 4.70699823L574.99979521 512.43181982v-16.05599385L435.13985058 523.24981542a4.88699824 4.88699824 0 0 0-4.13999824 4.70699825v6.26399737z m143.99994287-1.84499913L435.13985058 559.24980137a4.88699824 4.88699824 0 0 0-4.13999824 4.70699824v6.25499736c0 3.02399912 2.91599912 5.29199825 6.07499737 4.70699824L574.99979521 548.43180576v-16.05599385z" fill="#EEEEEE" p-id="795"></path><path d="M435.13985058 442.24984795l61.78497539-11.16899561c3.15899912-0.576 6.07499737 1.70099912 6.07499737 4.70699825v33.26398681a4.86899824 4.86899824 0 0 1-4.13999824 4.70699825l-61.78497539 11.1689956c-3.15899912 0.576-6.07499737-1.69199912-6.07499737-4.70699824v-33.26398682c0-2.29499912 1.73699912-4.27499824 4.13999824-4.70699824z" fill="#2EA9D3" p-id="796"></path><path d="M547.99980576 684.70075127a52.29897891 52.29897891 0 0 1-38.87098418 50.63397978l3.95099824 0.76499913c32.12098682 6.19199737 61.91997539-18.53999297 61.91997539-51.39897891V590.52478818l-26.99998945 5.58899825v88.58696484z" fill="#923931" p-id="797"></path><path d="M574.21679521 475.47783477c-0.27-2.92499912-0.792-5.81399737-1.206-8.72999649-0.369-2.63699912-0.612-5.30099825-1.08899912-7.91999736-0.738-4.01399825-1.72799912-7.97399648-2.71799911-11.94299473l-0.99899912-4.38299824a201.75291914 201.75291914 0 0 0-4.47299825-14.09399472l-0.585-1.83599913a208.70991651 208.70991651 0 0 0-6.16499737-15.05699384l-0.171-0.396a214.75791386 214.75791386 0 0 0-25.65899032-42.30898331l-0.26999913-0.37799912-23.72399121 4.50899737C532.43881192 407.13186201 547.99980576 449.24284531 547.99980576 492.34382773v166.92293321l26.99998945-5.12999737V492.34382773c0-5.64299737-0.27-11.2679956-0.783-16.86599296z" fill="#E5E5E5" p-id="798"></path><path d="M430.99985234 534.22081104c0 3.02399912 2.91599912 5.29199825 6.07499737 4.70699823L574.99979521 512.43181982v-16.05599385L435.13985058 523.24981542a4.88699824 4.88699824 0 0 0-4.13999824 4.70699825v6.26399737z m143.99994287-1.84499913L435.13985058 559.24980137a4.88699824 4.88699824 0 0 0-4.13999824 4.70699824v6.25499736c0 3.02399912 2.91599912 5.29199825 6.07499737 4.70699824L574.99979521 548.43180576v-16.05599385z" fill="#EEEEEE" p-id="799"></path><path d="M547.99980576 517.61581807l26.99998945-5.18399825v-16.05599385l-26.99998945 5.18399825z m0 35.99998506l26.99998945-5.18399737v-16.05599385l-26.99998945 5.18399825z" fill="#CECECE" p-id="800"></path><path d="M514.73581894 731.83373193L312.9198998 692.90874776a52.96497891 52.96497891 0 0 0-9.93599647-0.954c-28.07098857 0-51.98397891 22.90499122-51.98397892 52.3439789v134.16294639c5.89499737 4.21199825 11.8979956 8.27999648 17.99999297 12.1949956V744.29872666c0-18.93599209 15.24599385-34.34398594 33.99298594-34.34398593 2.15999912 0 4.34699824 0.207 6.51599736 0.63l201.81592002 38.92498417A34.29898594 34.29898594 0 0 1 538.99980928 783.22371172v177.90292881a438.47982422 438.47982422 0 0 0 17.99999296-1.368V783.22371172a52.27197891 52.27197891 0 0 0-42.2639833-51.38997979z" fill="#CB4E44" p-id="801"></path><path d="M383.25487168 700.89174424l36.26998506 5.88599824c6.58799737 1.08 11.4749956 7.49699737 11.4749956 15.04799385 0 9.24299648-7.20899737 16.35299385-15.25499385 15.04799385l-36.26098505-5.88599737C372.88687607 729.91673281 367.99987783 723.49973545 367.99987783 715.93973809c0-9.25199648 7.20899737-16.36199385 15.25499385-15.04799385z" fill="#EFC75E" p-id="802"></path></svg>